# MagicaVoxel @ Ephtracy

# group
o 

# material
mtllib box.mtl
usemtl palette

# normals
vn -1 0 0
vn 1 0 0
vn 0 0 1
vn 0 0 -1
vn 0 -1 0
vn 0 1 0

# texcoords
vt 0.0371094 0.5
vt 0.0449219 0.5
vt 0.0488281 0.5

# verts
v -0.5 0 0.5
v -0.5 0 -0.5
v -0.5 0.1 0.4
v -0.5 0.1 0.2
v -0.5 0.1 0.1
v -0.5 0.1 -0.1
v -0.5 0.1 -0.2
v -0.5 0.1 -0.4
v -0.5 0.4 0.4
v -0.5 0.4 0.2
v -0.5 0.4 0.1
v -0.5 0.4 -0.1
v -0.5 0.4 -0.2
v -0.5 0.4 -0.4
v -0.5 0.5 0.5
v -0.5 0.5 -0.5
v -0.4 0.1 0.4
v -0.4 0.1 0.2
v -0.4 0.1 0.1
v -0.4 0.1 -0.1
v -0.4 0.1 -0.2
v -0.4 0.1 -0.4
v -0.4 0.4 0.4
v -0.4 0.4 0.2
v -0.4 0.4 0.1
v -0.4 0.4 -0.1
v -0.4 0.4 -0.2
v -0.4 0.4 -0.4
v -0.2 0.1 0.5
v -0.2 0.1 0.4
v -0.2 0.1 -0.4
v -0.2 0.1 -0.5
v -0.2 0.4 0.5
v -0.2 0.4 0.4
v -0.2 0.4 -0.4
v -0.2 0.4 -0.5
v 0.1 0.1 -0.4
v 0.1 0.1 -0.5
v 0.1 0.4 -0.4
v 0.1 0.4 -0.5
v 0.3 0.1 0.3
v 0.3 0.1 0.2
v 0.3 0.1 0.1
v 0.3 0.1 -0.1
v 0.3 0.1 -0.2
v 0.3 0.1 -0.3
v 0.3 0.4 0.3
v 0.3 0.4 0.2
v 0.3 0.4 0.1
v 0.3 0.4 -0.1
v 0.3 0.4 -0.2
v 0.3 0.4 -0.3
v 0.3 0.5 0.3
v 0.3 0.5 -0.3
v 0.4 0.1 0.5
v 0.4 0.1 0.4
v 0.4 0.1 -0.4
v 0.4 0.1 -0.5
v 0.4 0.4 0.5
v 0.4 0.4 0.4
v 0.4 0.4 -0.4
v 0.4 0.4 -0.5
v -0.4 0.1 0.5
v -0.4 0.1 0.4
v -0.4 0.1 -0.4
v -0.4 0.1 -0.5
v -0.4 0.4 0.5
v -0.4 0.4 0.4
v -0.4 0.4 -0.4
v -0.4 0.4 -0.5
v -0.3 0.1 0.3
v -0.3 0.1 0.2
v -0.3 0.1 0.1
v -0.3 0.1 -0.1
v -0.3 0.1 -0.2
v -0.3 0.1 -0.3
v -0.3 0.4 0.3
v -0.3 0.4 0.2
v -0.3 0.4 0.1
v -0.3 0.4 -0.1
v -0.3 0.4 -0.2
v -0.3 0.4 -0.3
v -0.3 0.5 0.3
v -0.3 0.5 -0.3
v -0.1 0.1 -0.4
v -0.1 0.1 -0.5
v -0.1 0.4 -0.4
v -0.1 0.4 -0.5
v 0.2 0.1 0.5
v 0.2 0.1 0.4
v 0.2 0.1 -0.4
v 0.2 0.1 -0.5
v 0.2 0.4 0.5
v 0.2 0.4 0.4
v 0.2 0.4 -0.4
v 0.2 0.4 -0.5
v 0.4 0.1 0.4
v 0.4 0.1 0.2
v 0.4 0.1 0.1
v 0.4 0.1 -0.1
v 0.4 0.1 -0.2
v 0.4 0.1 -0.4
v 0.4 0.4 0.4
v 0.4 0.4 0.2
v 0.4 0.4 0.1
v 0.4 0.4 -0.1
v 0.4 0.4 -0.2
v 0.4 0.4 -0.4
v 0.5 0 0.5
v 0.5 0 -0.5
v 0.5 0.1 0.4
v 0.5 0.1 0.2
v 0.5 0.1 0.1
v 0.5 0.1 -0.1
v 0.5 0.1 -0.2
v 0.5 0.1 -0.4
v 0.5 0.4 0.4
v 0.5 0.4 0.2
v 0.5 0.4 0.1
v 0.5 0.4 -0.1
v 0.5 0.4 -0.2
v 0.5 0.4 -0.4
v 0.5 0.5 0.5
v 0.5 0.5 -0.5
v -0.5 0 0.5
v -0.5 0.5 0.5
v -0.4 0.1 0.5
v -0.4 0.4 0.5
v -0.2 0.1 0.5
v -0.2 0.4 0.5
v -0.1 0.2 0.5
v -0.1 0.4 0.5
v 0.1 0.2 0.5
v 0.1 0.4 0.5
v 0.2 0.1 0.5
v 0.2 0.4 0.5
v 0.4 0.1 0.5
v 0.4 0.4 0.5
v 0.5 0 0.5
v 0.5 0.5 0.5
v -0.4 0.1 0.4
v -0.4 0.4 0.4
v -0.2 0.1 0.4
v -0.2 0.4 0.4
v 0.2 0.1 0.4
v 0.2 0.4 0.4
v 0.4 0.1 0.4
v 0.4 0.4 0.4
v -0.5 0.1 0.2
v -0.5 0.4 0.2
v -0.4 0.1 0.2
v -0.4 0.4 0.2
v 0.4 0.1 0.2
v 0.4 0.4 0.2
v 0.5 0.1 0.2
v 0.5 0.4 0.2
v -0.5 0.1 -0.1
v -0.5 0.4 -0.1
v -0.4 0.1 -0.1
v -0.4 0.4 -0.1
v 0.4 0.1 -0.1
v 0.4 0.4 -0.1
v 0.5 0.1 -0.1
v 0.5 0.4 -0.1
v -0.3 0.1 -0.3
v -0.3 0.4 -0.3
v -0.3 0.5 -0.3
v -0.2 0.1 -0.3
v -0.2 0.4 -0.3
v -0.1 0.1 -0.3
v -0.1 0.4 -0.3
v 0.1 0.1 -0.3
v 0.1 0.4 -0.3
v 0.2 0.1 -0.3
v 0.2 0.4 -0.3
v 0.3 0.1 -0.3
v 0.3 0.4 -0.3
v 0.3 0.5 -0.3
v -0.5 0.1 -0.4
v -0.5 0.4 -0.4
v -0.4 0.1 -0.4
v -0.4 0.4 -0.4
v 0.4 0.1 -0.4
v 0.4 0.4 -0.4
v 0.5 0.1 -0.4
v 0.5 0.4 -0.4
v -0.5 0.1 0.4
v -0.5 0.4 0.4
v -0.4 0.1 0.4
v -0.4 0.4 0.4
v 0.4 0.1 0.4
v 0.4 0.4 0.4
v 0.5 0.1 0.4
v 0.5 0.4 0.4
v -0.3 0.1 0.3
v -0.3 0.4 0.3
v -0.3 0.5 0.3
v -0.2 0.1 0.3
v -0.2 0.4 0.3
v -0.1 0.1 0.3
v -0.1 0.4 0.3
v 0.1 0.1 0.3
v 0.1 0.4 0.3
v 0.2 0.1 0.3
v 0.2 0.4 0.3
v 0.3 0.1 0.3
v 0.3 0.4 0.3
v 0.3 0.5 0.3
v -0.5 0.1 0.1
v -0.5 0.4 0.1
v -0.4 0.1 0.1
v -0.4 0.4 0.1
v 0.4 0.1 0.1
v 0.4 0.4 0.1
v 0.5 0.1 0.1
v 0.5 0.4 0.1
v -0.5 0.1 -0.2
v -0.5 0.4 -0.2
v -0.4 0.1 -0.2
v -0.4 0.4 -0.2
v 0.4 0.1 -0.2
v 0.4 0.4 -0.2
v 0.5 0.1 -0.2
v 0.5 0.4 -0.2
v -0.4 0.1 -0.4
v -0.4 0.4 -0.4
v -0.2 0.1 -0.4
v -0.2 0.4 -0.4
v -0.1 0.1 -0.4
v -0.1 0.4 -0.4
v 0.1 0.1 -0.4
v 0.1 0.4 -0.4
v 0.2 0.1 -0.4
v 0.2 0.4 -0.4
v 0.4 0.1 -0.4
v 0.4 0.4 -0.4
v -0.5 0 -0.5
v -0.5 0.5 -0.5
v -0.4 0.1 -0.5
v -0.4 0.4 -0.5
v -0.2 0.1 -0.5
v -0.2 0.4 -0.5
v -0.1 0.1 -0.5
v -0.1 0.4 -0.5
v 0.1 0.1 -0.5
v 0.1 0.4 -0.5
v 0.2 0.1 -0.5
v 0.2 0.4 -0.5
v 0.4 0.1 -0.5
v 0.4 0.4 -0.5
v 0.5 0 -0.5
v 0.5 0.5 -0.5
v -0.5 0 0.5
v 0.5 0 0.5
v -0.5 0 -0.5
v 0.5 0 -0.5
v -0.4 0.4 0.5
v -0.2 0.4 0.5
v 0.2 0.4 0.5
v 0.4 0.4 0.5
v -0.5 0.4 0.4
v -0.4 0.4 0.4
v -0.2 0.4 0.4
v 0.2 0.4 0.4
v 0.4 0.4 0.4
v 0.5 0.4 0.4
v -0.5 0.4 0.2
v -0.4 0.4 0.2
v 0.4 0.4 0.2
v 0.5 0.4 0.2
v -0.5 0.4 0.1
v -0.4 0.4 0.1
v 0.4 0.4 0.1
v 0.5 0.4 0.1
v -0.5 0.4 -0.1
v -0.4 0.4 -0.1
v 0.4 0.4 -0.1
v 0.5 0.4 -0.1
v -0.5 0.4 -0.2
v -0.4 0.4 -0.2
v 0.4 0.4 -0.2
v 0.5 0.4 -0.2
v -0.5 0.4 -0.4
v -0.4 0.4 -0.4
v -0.2 0.4 -0.4
v -0.1 0.4 -0.4
v 0.1 0.4 -0.4
v 0.2 0.4 -0.4
v 0.4 0.4 -0.4
v 0.5 0.4 -0.4
v -0.4 0.4 -0.5
v -0.2 0.4 -0.5
v -0.1 0.4 -0.5
v 0.1 0.4 -0.5
v 0.2 0.4 -0.5
v 0.4 0.4 -0.5
v -0.4 0.1 0.5
v -0.2 0.1 0.5
v 0.2 0.1 0.5
v 0.4 0.1 0.5
v -0.5 0.1 0.4
v -0.4 0.1 0.4
v -0.2 0.1 0.4
v 0.2 0.1 0.4
v 0.4 0.1 0.4
v 0.5 0.1 0.4
v -0.3 0.1 0.3
v -0.2 0.1 0.3
v -0.1 0.1 0.3
v 0.1 0.1 0.3
v 0.2 0.1 0.3
v 0.3 0.1 0.3
v -0.5 0.1 0.2
v -0.4 0.1 0.2
v -0.3 0.1 0.2
v 0.3 0.1 0.2
v 0.4 0.1 0.2
v 0.5 0.1 0.2
v -0.5 0.1 0.1
v -0.4 0.1 0.1
v -0.3 0.1 0.1
v 0.3 0.1 0.1
v 0.4 0.1 0.1
v 0.5 0.1 0.1
v -0.5 0.1 -0.1
v -0.4 0.1 -0.1
v -0.3 0.1 -0.1
v 0.3 0.1 -0.1
v 0.4 0.1 -0.1
v 0.5 0.1 -0.1
v -0.5 0.1 -0.2
v -0.4 0.1 -0.2
v -0.3 0.1 -0.2
v 0.3 0.1 -0.2
v 0.4 0.1 -0.2
v 0.5 0.1 -0.2
v -0.3 0.1 -0.3
v -0.2 0.1 -0.3
v -0.1 0.1 -0.3
v 0.1 0.1 -0.3
v 0.2 0.1 -0.3
v 0.3 0.1 -0.3
v -0.5 0.1 -0.4
v -0.4 0.1 -0.4
v -0.2 0.1 -0.4
v -0.1 0.1 -0.4
v 0.1 0.1 -0.4
v 0.2 0.1 -0.4
v 0.4 0.1 -0.4
v 0.5 0.1 -0.4
v -0.4 0.1 -0.5
v -0.2 0.1 -0.5
v -0.1 0.1 -0.5
v 0.1 0.1 -0.5
v 0.2 0.1 -0.5
v 0.4 0.1 -0.5
v -0.5 0.5 0.5
v 0.5 0.5 0.5
v -0.3 0.5 0.3
v 0.3 0.5 0.3
v -0.3 0.5 -0.3
v 0.3 0.5 -0.3
v -0.5 0.5 -0.5
v 0.5 0.5 -0.5

# faces
f 3/3/1 2/3/1 1/3/1
f 4/3/1 2/3/1 3/3/1
f 5/3/1 2/3/1 4/3/1
f 6/3/1 2/3/1 5/3/1
f 7/3/1 2/3/1 6/3/1
f 8/3/1 2/3/1 7/3/1
f 9/3/1 3/3/1 1/3/1
f 10/3/1 5/3/1 4/3/1
f 11/3/1 5/3/1 10/3/1
f 12/3/1 7/3/1 6/3/1
f 13/3/1 7/3/1 12/3/1
f 14/3/1 2/3/1 8/3/1
f 15/3/1 13/3/1 12/3/1
f 15/3/1 14/3/1 13/3/1
f 15/3/1 11/3/1 10/3/1
f 15/3/1 9/3/1 1/3/1
f 15/3/1 12/3/1 11/3/1
f 15/3/1 10/3/1 9/3/1
f 16/3/1 2/3/1 14/3/1
f 16/3/1 14/3/1 15/3/1
f 23/2/1 18/2/1 17/2/1
f 24/2/1 18/2/1 23/2/1
f 25/2/1 20/2/1 19/2/1
f 26/2/1 20/2/1 25/2/1
f 27/2/1 22/2/1 21/2/1
f 28/2/1 22/2/1 27/2/1
f 33/3/1 30/3/1 29/3/1
f 34/3/1 30/3/1 33/3/1
f 35/3/1 32/3/1 31/3/1
f 36/3/1 32/3/1 35/3/1
f 39/3/1 38/3/1 37/3/1
f 40/3/1 38/3/1 39/3/1
f 47/2/1 42/2/1 41/2/1
f 48/3/1 43/3/1 42/3/1
f 48/2/1 42/2/1 47/2/1
f 49/2/1 44/2/1 43/2/1
f 49/3/1 43/3/1 48/3/1
f 50/3/1 45/3/1 44/3/1
f 50/2/1 44/2/1 49/2/1
f 51/2/1 46/2/1 45/2/1
f 51/3/1 45/3/1 50/3/1
f 52/2/1 46/2/1 51/2/1
f 53/3/1 50/3/1 49/3/1
f 53/3/1 48/3/1 47/3/1
f 53/3/1 52/3/1 51/3/1
f 53/3/1 51/3/1 50/3/1
f 53/3/1 49/3/1 48/3/1
f 54/3/1 52/3/1 53/3/1
f 59/3/1 56/3/1 55/3/1
f 60/3/1 56/3/1 59/3/1
f 61/3/1 58/3/1 57/3/1
f 62/3/1 58/3/1 61/3/1
f 63/3/2 64/3/2 67/3/2
f 67/3/2 64/3/2 68/3/2
f 65/3/2 66/3/2 69/3/2
f 69/3/2 66/3/2 70/3/2
f 71/2/2 72/2/2 77/2/2
f 72/3/2 73/3/2 78/3/2
f 77/2/2 72/2/2 78/2/2
f 73/2/2 74/2/2 79/2/2
f 78/3/2 73/3/2 79/3/2
f 74/3/2 75/3/2 80/3/2
f 79/2/2 74/2/2 80/2/2
f 75/2/2 76/2/2 81/2/2
f 80/3/2 75/3/2 81/3/2
f 81/2/2 76/2/2 82/2/2
f 79/3/2 80/3/2 83/3/2
f 77/3/2 78/3/2 83/3/2
f 81/3/2 82/3/2 83/3/2
f 80/3/2 81/3/2 83/3/2
f 78/3/2 79/3/2 83/3/2
f 83/3/2 82/3/2 84/3/2
f 85/3/2 86/3/2 87/3/2
f 87/3/2 86/3/2 88/3/2
f 89/3/2 90/3/2 93/3/2
f 93/3/2 90/3/2 94/3/2
f 91/3/2 92/3/2 95/3/2
f 95/3/2 92/3/2 96/3/2
f 97/2/2 98/2/2 103/2/2
f 103/2/2 98/2/2 104/2/2
f 99/2/2 100/2/2 105/2/2
f 105/2/2 100/2/2 106/2/2
f 101/2/2 102/2/2 107/2/2
f 107/2/2 102/2/2 108/2/2
f 109/3/2 110/3/2 111/3/2
f 111/3/2 110/3/2 112/3/2
f 112/3/2 110/3/2 113/3/2
f 113/3/2 110/3/2 114/3/2
f 114/3/2 110/3/2 115/3/2
f 115/3/2 110/3/2 116/3/2
f 109/3/2 111/3/2 117/3/2
f 112/3/2 113/3/2 118/3/2
f 118/3/2 113/3/2 119/3/2
f 114/3/2 115/3/2 120/3/2
f 120/3/2 115/3/2 121/3/2
f 116/3/2 110/3/2 122/3/2
f 120/3/2 121/3/2 123/3/2
f 121/3/2 122/3/2 123/3/2
f 118/3/2 119/3/2 123/3/2
f 109/3/2 117/3/2 123/3/2
f 119/3/2 120/3/2 123/3/2
f 117/3/2 118/3/2 123/3/2
f 122/3/2 110/3/2 124/3/2
f 123/3/2 122/3/2 124/3/2
f 127/3/3 126/3/3 125/3/3
f 128/3/3 126/3/3 127/3/3
f 129/3/3 127/3/3 125/3/3
f 130/3/3 126/3/3 128/3/3
f 131/3/3 130/3/3 129/3/3
f 132/3/3 126/3/3 130/3/3
f 132/3/3 130/3/3 131/3/3
f 133/3/3 131/3/3 129/3/3
f 133/1/3 132/1/3 131/1/3
f 134/3/3 126/3/3 132/3/3
f 134/1/3 132/1/3 133/1/3
f 135/3/3 129/3/3 125/3/3
f 135/3/3 133/3/3 129/3/3
f 135/3/3 134/3/3 133/3/3
f 136/3/3 126/3/3 134/3/3
f 136/3/3 134/3/3 135/3/3
f 137/3/3 135/3/3 125/3/3
f 138/3/3 126/3/3 136/3/3
f 139/3/3 137/3/3 125/3/3
f 139/3/3 138/3/3 137/3/3
f 140/3/3 126/3/3 138/3/3
f 140/3/3 138/3/3 139/3/3
f 143/2/3 142/2/3 141/2/3
f 144/2/3 142/2/3 143/2/3
f 147/2/3 146/2/3 145/2/3
f 148/2/3 146/2/3 147/2/3
f 151/3/3 150/3/3 149/3/3
f 152/3/3 150/3/3 151/3/3
f 155/3/3 154/3/3 153/3/3
f 156/3/3 154/3/3 155/3/3
f 159/3/3 158/3/3 157/3/3
f 160/3/3 158/3/3 159/3/3
f 163/3/3 162/3/3 161/3/3
f 164/3/3 162/3/3 163/3/3
f 168/2/3 166/2/3 165/2/3
f 169/3/3 167/3/3 166/3/3
f 169/2/3 166/2/3 168/2/3
f 170/3/3 169/3/3 168/3/3
f 171/3/3 167/3/3 169/3/3
f 171/3/3 169/3/3 170/3/3
f 172/2/3 171/2/3 170/2/3
f 173/3/3 167/3/3 171/3/3
f 173/2/3 171/2/3 172/2/3
f 174/3/3 173/3/3 172/3/3
f 175/3/3 167/3/3 173/3/3
f 175/3/3 173/3/3 174/3/3
f 176/2/3 175/2/3 174/2/3
f 177/3/3 167/3/3 175/3/3
f 177/2/3 175/2/3 176/2/3
f 178/3/3 167/3/3 177/3/3
f 181/3/3 180/3/3 179/3/3
f 182/3/3 180/3/3 181/3/3
f 185/3/3 184/3/3 183/3/3
f 186/3/3 184/3/3 185/3/3
f 187/3/4 188/3/4 189/3/4
f 189/3/4 188/3/4 190/3/4
f 191/3/4 192/3/4 193/3/4
f 193/3/4 192/3/4 194/3/4
f 195/2/4 196/2/4 198/2/4
f 196/3/4 197/3/4 199/3/4
f 198/2/4 196/2/4 199/2/4
f 198/3/4 199/3/4 200/3/4
f 199/3/4 197/3/4 201/3/4
f 200/3/4 199/3/4 201/3/4
f 200/2/4 201/2/4 202/2/4
f 201/3/4 197/3/4 203/3/4
f 202/2/4 201/2/4 203/2/4
f 202/3/4 203/3/4 204/3/4
f 203/3/4 197/3/4 205/3/4
f 204/3/4 203/3/4 205/3/4
f 204/2/4 205/2/4 206/2/4
f 205/3/4 197/3/4 207/3/4
f 206/2/4 205/2/4 207/2/4
f 207/3/4 197/3/4 208/3/4
f 209/3/4 210/3/4 211/3/4
f 211/3/4 210/3/4 212/3/4
f 213/3/4 214/3/4 215/3/4
f 215/3/4 214/3/4 216/3/4
f 217/3/4 218/3/4 219/3/4
f 219/3/4 218/3/4 220/3/4
f 221/3/4 222/3/4 223/3/4
f 223/3/4 222/3/4 224/3/4
f 225/2/4 226/2/4 227/2/4
f 227/2/4 226/2/4 228/2/4
f 229/2/4 230/2/4 231/2/4
f 231/2/4 230/2/4 232/2/4
f 233/2/4 234/2/4 235/2/4
f 235/2/4 234/2/4 236/2/4
f 237/3/4 238/3/4 239/3/4
f 239/3/4 238/3/4 240/3/4
f 237/3/4 239/3/4 241/3/4
f 240/3/4 238/3/4 242/3/4
f 237/3/4 241/3/4 243/3/4
f 241/3/4 242/3/4 243/3/4
f 242/3/4 238/3/4 244/3/4
f 243/3/4 242/3/4 244/3/4
f 237/3/4 243/3/4 245/3/4
f 244/3/4 238/3/4 246/3/4
f 237/3/4 245/3/4 247/3/4
f 245/3/4 246/3/4 247/3/4
f 246/3/4 238/3/4 248/3/4
f 247/3/4 246/3/4 248/3/4
f 237/3/4 247/3/4 249/3/4
f 248/3/4 238/3/4 250/3/4
f 237/3/4 249/3/4 251/3/4
f 249/3/4 250/3/4 251/3/4
f 250/3/4 238/3/4 252/3/4
f 251/3/4 250/3/4 252/3/4
f 255/3/5 254/3/5 253/3/5
f 256/3/5 254/3/5 255/3/5
f 262/3/5 258/3/5 257/3/5
f 263/3/5 258/3/5 262/3/5
f 264/3/5 260/3/5 259/3/5
f 265/3/5 260/3/5 264/3/5
f 267/3/5 262/3/5 261/3/5
f 268/3/5 262/3/5 267/3/5
f 269/3/5 266/3/5 265/3/5
f 270/3/5 266/3/5 269/3/5
f 275/3/5 272/3/5 271/3/5
f 276/3/5 272/3/5 275/3/5
f 277/3/5 274/3/5 273/3/5
f 278/3/5 274/3/5 277/3/5
f 283/3/5 280/3/5 279/3/5
f 284/3/5 280/3/5 283/3/5
f 289/3/5 282/3/5 281/3/5
f 290/3/5 282/3/5 289/3/5
f 291/3/5 285/3/5 284/3/5
f 292/3/5 285/3/5 291/3/5
f 293/3/5 287/3/5 286/3/5
f 294/3/5 287/3/5 293/3/5
f 295/3/5 289/3/5 288/3/5
f 296/3/5 289/3/5 295/3/5
f 297/3/6 298/3/6 302/3/6
f 302/3/6 298/3/6 303/3/6
f 299/3/6 300/3/6 304/3/6
f 304/3/6 300/3/6 305/3/6
f 301/3/6 302/3/6 313/3/6
f 313/3/6 302/3/6 314/3/6
f 311/3/6 312/3/6 315/3/6
f 307/3/6 308/3/6 315/3/6
f 308/3/6 309/3/6 315/3/6
f 310/3/6 311/3/6 315/3/6
f 309/3/6 310/3/6 315/3/6
f 315/3/6 312/3/6 316/3/6
f 305/3/6 306/3/6 317/3/6
f 317/3/6 306/3/6 318/3/6
f 315/3/6 316/3/6 321/3/6
f 321/3/6 316/3/6 322/3/6
f 319/3/6 320/3/6 325/3/6
f 325/3/6 320/3/6 326/3/6
f 321/3/6 322/3/6 327/3/6
f 327/3/6 322/3/6 328/3/6
f 323/3/6 324/3/6 329/3/6
f 329/3/6 324/3/6 330/3/6
f 327/3/6 328/3/6 333/3/6
f 333/3/6 328/3/6 334/3/6
f 333/3/6 334/3/6 337/3/6
f 337/3/6 334/3/6 338/3/6
f 338/3/6 334/3/6 339/3/6
f 339/3/6 334/3/6 340/3/6
f 340/3/6 334/3/6 341/3/6
f 341/3/6 334/3/6 342/3/6
f 331/3/6 332/3/6 343/3/6
f 343/3/6 332/3/6 344/3/6
f 335/3/6 336/3/6 349/3/6
f 349/3/6 336/3/6 350/3/6
f 344/3/6 345/3/6 351/3/6
f 351/3/6 345/3/6 352/3/6
f 346/3/6 347/3/6 353/3/6
f 353/3/6 347/3/6 354/3/6
f 348/3/6 349/3/6 355/3/6
f 355/3/6 349/3/6 356/3/6
f 357/3/6 358/3/6 359/3/6
f 359/3/6 358/3/6 360/3/6
f 357/3/6 359/3/6 361/3/6
f 360/3/6 358/3/6 362/3/6
f 357/3/6 361/3/6 363/3/6
f 361/3/6 362/3/6 363/3/6
f 362/3/6 358/3/6 364/3/6
f 363/3/6 362/3/6 364/3/6
